<svg xmlns="http://www.w3.org/2000/svg" viewBox="0 0 640 512"><!--!Font Awesome Free 6.5.1 by @fontawesome - https://fontawesome.com License - https://fontawesome.com/license/free Copyright 2024 Fonticons, Inc.--><path d="M544 248v3.3l69.7-69.7c21.9-21.9 21.9-57.3 0-79.2L535.6 24.4c-21.9-21.9-57.3-21.9-79.2 0L416.3 64.5c-2.7-.3-5.5-.5-8.3-.5H296c-37.1 0-67.6 28-71.6 64H224V120c0-22.1-17.9-40-40-40s-40 17.9-40 40v8H64c-17.7 0-32 14.3-32 32V392c0 22.1 17.9 40 40 40H384c17.7 0 32-14.3 32-32V256c0-4.4-3.6-8-8-8H296c-4.4 0-8 3.6-8 8V392c0 4.4-3.6 8-8 8H72c-4.4 0-8-3.6-8-8V160c0-4.4 3.6-8 8-8H144v40c0 22.1 17.9 40 40 40s40-17.9 40-40V152h61.6c4.1 36.5 35.1 64 72.4 64h72c4.4 0 8 3.6 8 8v24zm-64-40c0 8.8-7.2 16-16 16s-16-7.2-16-16V176c0-8.8 7.2-16 16-16s16 7.2 16 16v32zm-512 0c0 8.8-7.2 16-16 16s-16-7.2-16-16V176c0-8.8 7.2-16 16-16s16 7.2 16 16v32z"/></svg>
